#!OML:ASF H:\GeneralSubjects\Female5\Project 1\Capture day 1\Session 1\Female5.ASF
:FULLY-SPECIFIED
:DEGREES
66
root 25.5695 14.7758 5.10127 -160.917 2.28239 -172.878
lowerback 12.9133 1.02472 1.74204
upperback -9.62238 2.7892 2.29571
thorax -18.4909 1.50382 0.808489
lowerneck -15.692 7.20578 10.0352
upperneck 23.0694 7.81658 -3.97106
head 10.5841 3.7794 -2.02056
rclavicle -2.59352e-015 -6.60959e-014
rhumerus -52.4531 9.69515 -74.8285
rradius 34.2068
rwrist -7.6004
rhand -25.1752 -16.6603
rfingers 7.12502
rthumb 1.3424 -46.6359
lclavicle -2.59352e-015 -6.60959e-014
lhumerus -46.3813 -5.94691 86.0946
lradius 44.0095
lwrist -7.13665
lhand -29.7795 29.5285
lfingers 7.12502
lthumb -3.10456 59.4856
rfemur -35.1232 11.0223 33.1158
rtibia 36.6127
rfoot -23.8031 -4.35106
rtoes -22.2445
lfemur -44.4005 -6.31386 -21.8977
ltibia 58.0394
lfoot -33.1746 -4.40822
ltoes -46.9562
67
root 25.5065 14.5697 5.09615 -160.136 1.98292 -172.047
lowerback 12.9601 0.883786 2.43737
upperback -9.71231 2.82381 2.52337
thorax -18.6281 1.46579 0.667553
lowerneck -16.4436 7.1529 9.85795
upperneck 22.5431 7.7568 -3.8761
head 10.5149 3.76675 -1.9414
rclavicle 2.29845e-014 2.84262e-014
rhumerus -51.6135 10.298 -74.9138
rradius 33.6677
rwrist -7.25116
rhand -24.8089 -15.9266
rfingers 7.12502
rthumb 1.69608 -45.8996
lclavicle 2.29845e-014 2.84262e-014
lhumerus -44.9648 -5.33102 84.9295
lradius 45.691
lwrist -7.40023
lhand -34.3943 31.2155
lfingers 7.12502
lthumb -7.56014 61.0604
rfemur -37.3709 12.4261 33.6302
rtibia 39.4492
rfoot -25.0762 -4.50041
rtoes -18.2666
lfemur -47.9319 -5.10808 -21.4356
ltibia 62.4052
lfoot -32.4325 -4.68864
ltoes -48.5347
68
root 25.4104 14.3985 5.08638 -159.886 1.66791 -171.399
lowerback 13.5957 0.717982 3.29149
upperback -9.6563 2.82732 2.63717
thorax -18.9604 1.35916 0.306701
lowerneck -17.2718 6.44461 9.88464
upperneck 21.8912 7.81616 -3.89865
head 10.4189 4.16607 -1.85831
rclavicle -3.73964e-015 -2.98177e-016
rhumerus -50.8252 11.2822 -75.1261
rradius 33.5045
rwrist -6.36859
rhand -24.6853 -15.5098
rfingers 7.12502
rthumb 1.81548 -45.4819
lclavicle -3.73964e-015 -2.98177e-016
lhumerus -43.49 -5.67698 84.0765
lradius 47.7481
lwrist -7.28507
lhand -33.5841 28.9442
lfingers 7.12502
lthumb -6.7781 58.8157
rfemur -39.0331 12.9417 33.9053
rtibia 42.1587
rfoot -26.3296 -4.67333
rtoes -17.0381
lfemur -50.2324 -4.54111 -21.341
ltibia 65.6247
lfoot -31.9438 -5.49038
ltoes -48.4956
69
root 25.2998 14.247 5.07417 -159.81 1.4867 -170.932
lowerback 14.2333 0.643342 4.1842
upperback -9.5319 2.92206 2.56813
thorax -19.1895 1.25993 -0.314158
lowerneck -18.2587 6.37694 9.63672
upperneck 21.4367 7.46035 -3.51651
head 10.3864 3.97099 -1.7192
rclavicle -7.57867e-016 1.39149e-015
rhumerus -50.137 12.4823 -75.5346
rradius 33.8515
rwrist -5.94539
rhand -26.0528 -15.1543
rfingers 7.12502
rthumb 0.494736 -45.1335
lclavicle -7.57867e-016 1.39149e-015
lhumerus -41.5647 -5.83957 82.8916
lradius 50.4183
lwrist -7.67177
lhand -32.2008 30.1047
lfingers 7.12502
lthumb -5.44257 60.0148
rfemur -40.4342 12.8665 34.0095
rtibia 44.7067
rfoot -27.5877 -4.36398
rtoes -16.0321
lfemur -51.625 -4.07339 -21.3573
ltibia 67.8334
lfoot -30.5591 -11.4773
ltoes -39.275
70
root 25.1865 14.1201 5.05929 -159.79 1.45622 -170.757
lowerback 14.6569 0.397761 4.16584
upperback -9.36926 2.68063 3.04143
thorax -19.3045 1.2027 0.316172
lowerneck -18.9757 6.52101 9.05933
upperneck 21.0938 7.70829 -3.6924
head 10.3938 3.9762 -1.63815
rclavicle 1.35733e-014 -1.11319e-014
rhumerus -48.619 14.4972 -74.466
rradius 34.4039
rwrist -2.77403
rhand -24.2809 -14.1054
rfingers 7.12502
rthumb 2.20608 -44.0738
lclavicle 1.35733e-014 -1.11319e-014
lhumerus -40.1269 -5.53517 82.0323
lradius 53.5687
lwrist -6.55676
lhand -30.7987 30.4534
lfingers 7.12502
lthumb -4.08879 60.3939
rfemur -41.5517 12.4905 33.7731
rtibia 46.8332
rfoot -28.5967 -3.71707
rtoes -14.6396
lfemur -52.2017 -3.36159 -21.8967
ltibia 69.0354
lfoot -29.1033 -16.1187
ltoes -31.1186
71
root 25.0647 14.0326 5.03985 -159.928 1.50378 -170.898
lowerback 15.0908 0.330023 4.21238
upperback -9.33935 2.61105 3.02974
thorax -19.5586 1.15336 0.293337
lowerneck -18.9713 6.42699 9.25577
upperneck 20.3174 7.54466 -4.20118
head 10.1318 3.83057 -1.88337
rclavicle -1.46976e-014 1.78906e-015
rhumerus -47.6972 16.1219 -73.7616
rradius 35.7488
rwrist -1.10042
rhand -24.1366 -13.1336
rfingers 7.12502
rthumb 2.34542 -43.1005
lclavicle -1.46976e-014 1.78906e-015
lhumerus -38.6368 -5.63965 80.44
lradius 57.7416
lwrist -7.24029
lhand -28.0772 31.0004
lfingers 7.12502
lthumb -1.46047 60.9752
rfemur -42.1717 11.7771 33.2225
rtibia 48.3201
rfoot -28.9984 -3.84997
rtoes -17.2735
lfemur -52.2759 -2.3562 -23.3278
ltibia 69.7271
lfoot -29.2582 -17.3046
ltoes -29.6377
72
root 24.9351 13.9913 5.01025 -160.187 1.59942 -171.292
lowerback 15.431 0.373641 3.90609
upperback -9.35269 2.61924 3.04959
thorax -19.8188 1.19228 0.482967
lowerneck -19.3695 6.23958 8.6233
upperneck 20.5036 7.2742 -3.55689
head 10.1988 3.72584 -1.58624
rclavicle -8.96084e-016 -2.7364e-014
rhumerus -46.7977 17.9696 -72.5858
rradius 37.7458
rwrist -0.191806
rhand -24.5185 -13.4046
rfingers 7.12502
rthumb 1.97662 -43.3752
lclavicle -8.96084e-016 -2.7364e-014
lhumerus -37.0645 -7.23208 79.0974
lradius 61.3343
lwrist -6.74474
lhand -32.0587 32.3758
lfingers 7.12502
lthumb -5.30541 62.2894
rfemur -42.3234 11.0215 32.3622
rtibia 49.1846
rfoot -28.9981 -4.10465
rtoes -20.4581
lfemur -49.6368 -3.5686 -24.6307
ltibia 67.2038
lfoot -29.5745 -19.0374
ltoes -26.1572
